<?xml version="1.0" encoding="utf-8"?>
<svg viewBox="204 240.998 69.585 18.004" xmlns="http://www.w3.org/2000/svg">
  <g fill="#1c1c1c" transform="matrix(1, 0, 0, 1, 221.636322, 240.998047)">
    <path d="M 49.851 16.52 L 49.851 7.68 L 50.851 7.68 C 51.438 7.733 51.944 7.269 51.941 6.68 L 51.941 6.65 C 52.011 6.079 51.586 5.566 51.011 5.53 L 49.851 5.53 L 49.851 3.88 C 49.854 3.241 49.367 2.707 48.731 2.65 C 48.075 2.61 47.509 3.105 47.461 3.76 L 47.461 5.55 L 46.461 5.55 C 45.874 5.497 45.369 5.961 45.371 6.55 L 45.371 6.62 C 45.301 7.191 45.727 7.704 46.301 7.74 L 47.431 7.74 L 47.431 16.55 C 47.431 17.207 47.964 17.74 48.621 17.74 C 49.275 17.774 49.834 17.274 49.871 16.62 C 49.875 16.585 49.868 16.551 49.851 16.52 Z"/>
    <circle fill="#FF4500" cx="42.484" cy="3.44" r="2.12"/>
    <path d="M 43.664 7.81 C 43.664 6.894 42.672 6.321 41.879 6.779 C 41.51 6.992 41.284 7.385 41.284 7.81 L 41.284 16.52 C 41.284 17.436 42.275 18.009 43.069 17.551 C 43.437 17.338 43.664 16.945 43.664 16.52 L 43.664 7.81 Z"/>
    <path d="M 38.424 1.19 C 38.424 0.533 37.891 0 37.234 0 C 36.578 0 36.048 0.534 36.054 1.19 L 36.054 6.51 C 35.259 5.717 34.176 5.281 33.054 5.3 C 29.954 5.3 27.364 8.15 27.364 11.65 C 27.364 15.15 29.864 18 33.004 18 C 34.175 18.039 35.311 17.594 36.144 16.77 C 36.322 17.402 36.986 17.763 37.614 17.57 C 38.087 17.43 38.426 17.012 38.464 16.52 L 38.424 1.19 Z M 32.994 15.64 C 31.164 15.64 29.684 13.87 29.684 11.64 C 29.684 9.41 31.154 7.64 32.994 7.64 C 34.834 7.64 36.304 9.42 36.304 11.64 C 36.304 13.86 34.834 15.59 33.004 15.59 L 32.994 15.64 Z"/>
    <path d="M 0.074 12.44 C 0.894 12.497 1.605 11.88 1.664 11.06 L 1.664 10.91 C 1.656 10.624 1.622 10.34 1.564 10.06 C 1.065 7.38 -1.223 5.404 -3.946 5.3 C -7.046 5.3 -9.636 8.15 -9.636 11.65 C -9.636 15.15 -7.086 18 -3.946 18 C -2.284 18.062 -0.678 17.389 0.444 16.16 C 0.903 15.658 0.867 14.878 0.364 14.42 L 0.254 14.33 C -0.25 14.017 -0.901 14.087 -1.326 14.5 C -2.028 15.19 -2.963 15.589 -3.946 15.62 C -5.657 15.488 -7.027 14.148 -7.196 12.44 L 0.074 12.44 Z M -3.926 7.68 C -2.427 7.783 -1.172 8.855 -0.836 10.32 L -7.056 10.32 C -6.719 8.852 -5.459 7.779 -3.956 7.68 L -3.926 7.68 Z"/>
    <path d="M -9.956 6.53 C -9.954 5.944 -10.378 5.444 -10.956 5.35 C -12.562 5.065 -14.198 5.66 -15.246 6.91 L -15.246 6.75 C -15.33 5.83 -16.379 5.346 -17.134 5.879 C -17.42 6.082 -17.604 6.4 -17.636 6.75 L -17.636 16.52 C -17.644 17.162 -17.156 17.703 -16.516 17.76 C -15.866 17.8 -15.304 17.31 -15.256 16.66 C -15.251 16.613 -15.251 16.567 -15.256 16.52 L -15.256 11.52 C -15.37 9.516 -13.831 7.802 -11.826 7.7 C -11.646 7.69 -11.466 7.69 -11.286 7.7 L -11.046 7.7 C -10.434 7.653 -9.96 7.144 -9.956 6.53 Z"/>
    <rect style="fill: rgb(255, 69, 0);" x="3.364" y="15.002" width="11" height="3"/>
    <path d="M 25.074 12.44 C 25.894 12.497 26.605 11.88 26.664 11.06 L 26.664 10.91 C 26.656 10.624 26.622 10.34 26.564 10.06 C 26.065 7.38 23.777 5.404 21.054 5.3 C 17.954 5.3 15.364 8.15 15.364 11.65 C 15.364 15.15 17.914 18 21.054 18 C 22.716 18.062 24.322 17.389 25.444 16.16 C 25.903 15.658 25.867 14.878 25.364 14.42 L 25.254 14.33 C 24.75 14.017 24.099 14.087 23.674 14.5 C 22.972 15.19 22.037 15.589 21.054 15.62 C 19.343 15.488 17.973 14.148 17.804 12.44 L 25.074 12.44 Z M 21.074 7.68 C 22.573 7.783 23.828 8.855 24.164 10.32 L 17.944 10.32 C 18.281 8.852 19.541 7.779 21.044 7.68 L 21.074 7.68 Z"/>
  </g>
</svg>